<svg viewBox="0 0 96 96" xmlns="http://www.w3.org/2000/svg" xmlns:xlink="http://www.w3.org/1999/xlink" id="Icons_Scribble_LTR" overflow="hidden"><style>
.MsftOfcThm_Background1_Fill_v2 {
 fill:#FFFFFF; 
}
</style>
<path d="M46.507 80.2C46.8395 80.1983 47.1645 80.1007 47.443 79.919L55.832 73.832C56.911 75.003 58.109 74.532 59.069 73.822L73.669 63.622 61.449 51.402 51.328 65.645C50.602 66.617 50.144 67.752 51.303 68.911L47.303 74.458C47.1308 74.3683 46.9503 74.2957 46.764 74.241 37.764 71.883 21.242 62.117 16.757 57.786L16.057 57.105 17.024 56.943C22.284 56.063 26.481 55.743 29.554 55.51 34.554 55.13 36.986 54.836 37.801 52.319 38.565 49.961 36.801 48.213 35.081 46.759 25.64 38.784 7.217 28.743 6.441 28.321 6.00161 28.0786 5.5078 27.952 5.006 27.953 3.34915 27.948 2.00194 29.287 1.99691 30.9439 1.99355 32.0497 2.59884 33.0678 3.572 33.593 4.182 33.927 18.622 41.864 27.897 48.747L28.955 49.533 27.641 49.633C24.488 49.881 20.625 50.243 15.873 51.046 10.627 51.93 9.724 54.72 9.652 56.306 9.537 58.975 11.229 63.054 25.446 71 31.4603 74.4133 37.7384 77.3394 44.22 79.75 44.8444 79.9481 45.4863 80.0861 46.137 80.162Z" class="MsftOfcThm_Background1_Fill_v2" stroke="none" stroke-width="1" stroke-linecap="butt" stroke-linejoin="miter" stroke-miterlimit="4" fill="#FFFFFF" fill-opacity="1"/><path d="M63.842 48.457 76.692 61.306 94.001 45.997 94.001 15 63.842 48.457Z" class="MsftOfcThm_Background1_Fill_v2" stroke="none" stroke-width="1" stroke-linecap="butt" stroke-linejoin="miter" stroke-miterlimit="4" fill="#FFFFFF" fill-opacity="1"/></svg>